<svg xmlns="http://www.w3.org/2000/svg" width="84" height="32" viewBox="0 0 84 32" fill="none">
  <g clip-path="url(#clip0_629_3413)">
    <path d="M73.5411 18.3893C73.2172 18.3893 72.9743 18.3083 72.7854 18.1194C72.6234 17.9574 72.5154 17.6875 72.5154 17.3636V7.40416C72.5154 7.08028 72.5964 6.81037 72.7854 6.64843C72.9743 6.48649 73.2172 6.40552 73.5411 6.40552H75.3494C75.7543 6.40552 76.1052 6.43251 76.4021 6.4595C76.699 6.51348 76.9689 6.59445 77.1578 6.75639C77.3737 6.91833 77.5087 7.13426 77.6166 7.45814C77.7246 7.75504 77.7786 8.18688 77.7786 8.6997V16.0951C77.7786 16.7698 77.6976 17.2557 77.5087 17.5795C77.3197 17.9034 77.0498 18.1194 76.699 18.2273C76.3481 18.3353 75.8893 18.3893 75.3494 18.3623L73.5411 18.3893ZM67.7382 0.602578C67.4143 0.629568 67.1444 0.71054 66.9824 0.872482C66.8205 1.03442 66.7395 1.30433 66.7395 1.62821V23.1666C66.7395 23.4904 66.8205 23.7334 67.0094 23.9223C67.1714 24.0842 67.4413 24.1922 67.7651 24.1922H75.2685C76.8339 24.1922 78.1834 24.0303 79.263 23.7064C80.3427 23.3825 81.2064 22.8697 81.8541 22.2219C82.5019 21.5741 82.9877 20.7104 83.2576 19.6848C83.5545 18.6592 83.6895 17.4716 83.6895 16.0951V8.6997C83.6895 7.32319 83.5545 6.13561 83.2576 5.10998C82.9607 4.08434 82.5019 3.24764 81.8541 2.59987C81.2064 1.92511 80.3427 1.43928 79.263 1.1154C78.1834 0.791511 76.8609 0.629568 75.2685 0.629568L67.7382 0.602578ZM57.9136 14.8265C57.9136 15.4743 57.8867 16.0681 57.8597 16.5809C57.8057 17.0937 57.6977 17.5256 57.5358 17.9034C57.3738 18.2813 57.1039 18.5512 56.7261 18.7401C56.3752 18.9291 55.8894 19.037 55.2686 19.037C54.6478 19.037 54.162 18.9291 53.8111 18.7401C53.4332 18.5512 53.1903 18.2813 53.0014 17.9034C52.8394 17.5526 52.7315 17.0937 52.6775 16.5809C52.6235 16.0681 52.5965 15.4743 52.6235 14.8265V9.96825C52.6235 9.32048 52.6505 8.72669 52.6775 8.21387C52.7315 7.70106 52.8394 7.26921 53.0014 6.89134C53.1633 6.51348 53.4332 6.24357 53.8111 6.05464C54.162 5.86571 54.6478 5.75775 55.2686 5.75775C55.8894 5.75775 56.3752 5.86571 56.7261 6.05464C57.1039 6.24357 57.3468 6.51348 57.5358 6.89134C57.6977 7.24222 57.8057 7.70106 57.8597 8.21387C57.9136 8.72669 57.9136 9.32048 57.9136 9.96825V14.8265ZM63.6896 8.18688C63.6896 7.80902 63.6626 7.35018 63.6086 6.81037C63.5546 6.27056 63.4467 5.70376 63.2577 5.08299C63.0688 4.46221 62.7989 3.86842 62.448 3.27463C62.0702 2.68084 61.5843 2.14103 60.9636 1.6552C60.3428 1.16938 59.5601 0.764521 58.6154 0.467626C57.6707 0.170732 56.5371 0.0357795 55.2146 0.00878906C53.8921 0.00878906 52.7585 0.170732 51.8138 0.467626C50.8691 0.764521 50.0864 1.16938 49.4656 1.6552C48.8449 2.14103 48.359 2.68084 47.9812 3.27463C47.6033 3.86842 47.3334 4.4892 47.1715 5.08299C46.9825 5.70376 46.8746 6.27056 46.8206 6.81037C46.7666 7.35018 46.7396 7.80902 46.7396 8.18688V16.6079C46.7396 16.9858 46.7666 17.4446 46.8206 17.9844C46.8746 18.5242 46.9825 19.091 47.1715 19.7118C47.3334 20.3326 47.6303 20.9264 47.9812 21.5201C48.359 22.1139 48.8449 22.6537 49.4656 23.1666C50.0864 23.6524 50.8691 24.0572 51.8138 24.3271C52.7585 24.624 53.8921 24.786 55.2146 24.786C56.5371 24.786 57.6707 24.624 58.6154 24.3271C59.5601 24.0303 60.3428 23.6524 60.9636 23.1666C61.5843 22.6807 62.0702 22.1409 62.448 21.5201C62.8259 20.9264 63.0958 20.3056 63.2577 19.7118C63.4197 19.091 63.5546 18.5242 63.6086 17.9844C63.6626 17.4446 63.6896 16.9858 63.6896 16.6079V8.18688ZM38.2916 14.8265C38.2916 15.4743 38.2646 16.0681 38.2376 16.5809C38.1837 17.0937 38.0757 17.5256 37.9137 17.9034C37.7518 18.2813 37.4819 18.5512 37.104 18.7401C36.7532 18.9291 36.2673 19.037 35.6466 19.037C35.0258 19.037 34.5399 18.9291 34.1891 18.7401C33.8112 18.5512 33.5683 18.2813 33.3794 17.9034C33.2174 17.5526 33.1095 17.0937 33.0555 16.5809C33.0015 16.0681 32.9745 15.4743 33.0015 14.8265V9.96825C33.0015 9.32048 33.0285 8.72669 33.0555 8.21387C33.1095 7.70106 33.2174 7.26921 33.3794 6.89134C33.5413 6.51348 33.8112 6.24357 34.1891 6.05464C34.5399 5.86571 35.0258 5.75775 35.6466 5.75775C36.2673 5.75775 36.7532 5.86571 37.104 6.05464C37.4819 6.24357 37.7248 6.51348 37.9137 6.89134C38.0757 7.24222 38.1837 7.70106 38.2376 8.21387C38.2916 8.72669 38.2916 9.32048 38.2916 9.96825V14.8265ZM44.0946 8.18688C44.0946 7.80902 44.0676 7.35018 44.0136 6.81037C43.9596 6.27056 43.8516 5.70376 43.6627 5.08299C43.4738 4.46221 43.2039 3.86842 42.853 3.27463C42.4751 2.68084 41.9893 2.14103 41.3685 1.6552C40.7477 1.16938 39.965 0.764521 39.0204 0.467626C38.0757 0.170732 36.9421 0.0357795 35.6196 0.00878906C34.297 0.00878906 33.1634 0.170732 32.2188 0.467626C31.2741 0.764521 30.4914 1.16938 29.8706 1.6552C29.2498 2.14103 28.764 2.68084 28.3861 3.27463C28.0083 3.86842 27.7384 4.4892 27.5764 5.08299C27.3875 5.70376 27.2795 6.27056 27.2255 6.81037C27.1716 7.35018 27.1446 7.80902 27.1446 8.18688V16.6079C27.1446 16.9858 27.1716 17.4446 27.2255 17.9844C27.2795 18.5242 27.3875 19.091 27.5764 19.7118C27.7384 20.3326 28.0353 20.9264 28.3861 21.5201C28.764 22.1139 29.2498 22.6537 29.8706 23.1666C30.4914 23.6524 31.2741 24.0572 32.2188 24.3271C33.1634 24.624 34.297 24.786 35.6196 24.786C36.9421 24.786 38.0757 24.624 39.0204 24.3271C39.965 24.0303 40.7477 23.6524 41.3685 23.1666C41.9893 22.6807 42.4751 22.1409 42.853 21.5201C43.2309 20.9264 43.5008 20.3056 43.6627 19.7118C43.8246 19.091 43.9596 18.5242 44.0136 17.9844C44.0676 17.4446 44.0946 16.9858 44.0946 16.6079V8.18688ZM24.1756 0.602578C24.8504 0.602578 25.1743 0.953453 25.1743 1.60122V5.37988C25.1743 5.70376 25.0933 5.94668 24.9314 6.13561C24.7694 6.32454 24.4995 6.40552 24.1756 6.40552H15.3768C15.0529 6.40552 14.81 6.48649 14.621 6.64843C14.4321 6.81037 14.3511 7.08028 14.3511 7.40416V23.1936C14.3511 23.5174 14.2702 23.7603 14.1082 23.9493C13.9463 24.1112 13.6764 24.2192 13.3525 24.2192H9.38489C9.061 24.2192 8.81809 24.1382 8.62916 23.9493C8.46721 23.7603 8.35925 23.5174 8.35925 23.1936V1.62821C8.35925 1.30433 8.44022 1.03442 8.62916 0.872482C8.81809 0.71054 9.061 0.629568 9.38489 0.629568L24.1756 0.602578Z" fill="#00B207"/>
    <path d="M82.151 29.4545C82.151 29.4275 82.1241 29.4275 82.1241 29.4005C82.1241 29.3735 82.1241 29.3735 82.151 29.3465L83.5006 27.5112C83.5545 27.4302 83.5545 27.3762 83.5276 27.3492C83.5006 27.3222 83.4466 27.2683 83.3656 27.2683H82.394C82.34 27.2683 82.286 27.2683 82.259 27.2952C82.232 27.3222 82.178 27.3492 82.151 27.4032L81.0984 28.8337C81.0714 28.8607 81.0714 28.8607 81.0444 28.8607C81.0174 28.8607 81.0174 28.8337 81.0174 28.8067V27.4842C81.0174 27.3492 80.9635 27.2952 80.8285 27.2952H80.0728C80.0188 27.2952 79.9648 27.3222 79.9378 27.3492C79.9108 27.3762 79.8839 27.4302 79.8839 27.5112V31.7756C79.8839 31.8296 79.9108 31.8836 79.9378 31.9106C79.9648 31.9376 80.0188 31.9646 80.0728 31.9646H80.8285C80.8825 31.9646 80.9365 31.9376 80.9905 31.9106C81.0444 31.8836 81.0444 31.8296 81.0444 31.7756V31.0469V30.9929C81.0444 30.9659 81.0444 30.9659 81.0714 30.9389L81.3413 30.5611C81.3413 30.5341 81.3683 30.5341 81.3953 30.5341C81.4223 30.5341 81.4223 30.5341 81.4493 30.5611L82.286 31.8296C82.313 31.8836 82.34 31.9106 82.394 31.9376C82.4209 31.9646 82.4749 31.9646 82.5289 31.9646H83.5276C83.6085 31.9646 83.6625 31.9376 83.6895 31.8836C83.7165 31.8296 83.7165 31.7756 83.6625 31.7217L82.151 29.4545ZM76.1052 27.2683C76.0512 27.2683 75.9972 27.2952 75.9703 27.3222C75.9433 27.3492 75.9163 27.4032 75.9163 27.4842V30.4531C75.9163 30.5341 75.9163 30.6151 75.9433 30.723C75.9433 30.831 75.9702 30.9389 76.0242 31.0739C76.0512 31.1819 76.1052 31.3168 76.1862 31.4248C76.2671 31.5327 76.3481 31.6407 76.4831 31.7487C76.618 31.8566 76.753 31.9106 76.9419 31.9916C77.1308 32.0456 77.3468 32.0725 77.6167 32.0725C77.8866 32.0725 78.1025 32.0456 78.2914 31.9916C78.4803 31.9376 78.6423 31.8566 78.7503 31.7487C78.8852 31.6407 78.9662 31.5327 79.0472 31.4248C79.1281 31.3168 79.1821 31.1819 79.2091 31.0739C79.2361 30.9659 79.2631 30.831 79.2631 30.723C79.2631 30.6151 79.2901 30.5341 79.2901 30.4531V27.4842C79.2901 27.3492 79.2361 27.2952 79.1011 27.2952H78.3454C78.2914 27.2952 78.2374 27.3222 78.2104 27.3492C78.1835 27.3762 78.1565 27.4302 78.1565 27.5112V30.4801C78.1565 30.5881 78.1295 30.669 78.1025 30.75C78.0755 30.831 78.0215 30.885 77.9405 30.912C77.8596 30.9389 77.7786 30.9659 77.6436 30.9659C77.5087 30.9659 77.4277 30.9389 77.3468 30.912C77.2658 30.885 77.2118 30.831 77.1848 30.75C77.1578 30.669 77.1308 30.5881 77.1308 30.4801C77.1308 30.3721 77.1038 30.2642 77.1308 30.1292V27.5112C77.1308 27.3762 77.0768 27.3222 76.9419 27.3222L76.1052 27.2683ZM75.2415 30.777C75.3765 30.777 75.4304 30.831 75.4304 30.9659V31.7217C75.4304 31.7756 75.4034 31.8296 75.3765 31.8566C75.3495 31.8836 75.2955 31.9106 75.2145 31.9106H74.4588C74.4048 31.9106 74.3508 31.8836 74.3238 31.8566C74.2968 31.8296 74.2699 31.7756 74.2699 31.7217V30.9659C74.2699 30.912 74.2968 30.858 74.3238 30.804C74.3508 30.777 74.4048 30.75 74.4588 30.75L75.2415 30.777ZM72.6234 30.0753V30.4261C72.6234 30.5341 72.5965 30.6151 72.5695 30.696C72.5425 30.777 72.4885 30.831 72.4075 30.858C72.3265 30.885 72.2456 30.912 72.1106 30.912C71.9757 30.912 71.8947 30.885 71.8137 30.858C71.7328 30.831 71.6788 30.777 71.6518 30.696C71.6248 30.6151 71.5978 30.5341 71.5978 30.4261C71.5978 30.3182 71.5708 30.2102 71.5978 30.0753V29.1306V28.7797C71.5978 28.6718 71.6248 28.5908 71.6518 28.5098C71.6788 28.4288 71.7328 28.3749 71.8137 28.3479C71.8947 28.3209 71.9757 28.2939 72.1106 28.2939C72.2456 28.2939 72.3265 28.3209 72.4075 28.3479C72.4885 28.3749 72.5425 28.4288 72.5695 28.5098C72.5965 28.5908 72.6234 28.6718 72.6234 28.7797V30.0753ZM73.784 28.7527C73.784 28.6718 73.784 28.5908 73.757 28.4828C73.757 28.3749 73.73 28.2669 73.7031 28.1319C73.6761 28.024 73.6221 27.889 73.5411 27.7811C73.4601 27.6731 73.3792 27.5651 73.2442 27.4572C73.1093 27.3492 72.9743 27.2952 72.7854 27.2143C72.5964 27.1603 72.3805 27.1333 72.1106 27.1333C71.8407 27.1333 71.6248 27.1603 71.4359 27.2143C71.2469 27.2683 71.085 27.3492 70.977 27.4572C70.8421 27.5651 70.7611 27.6731 70.6801 27.7811C70.5992 27.889 70.5452 28.024 70.5182 28.1319C70.4912 28.2399 70.4642 28.3749 70.4372 28.4828C70.4372 28.5908 70.4102 28.6718 70.4102 28.7527V30.4261C70.4102 30.5071 70.4102 30.5881 70.4372 30.696C70.4372 30.804 70.4642 30.912 70.5182 31.0469C70.5452 31.1549 70.5992 31.2898 70.6801 31.3978C70.7611 31.5057 70.8421 31.6137 70.977 31.7217C71.112 31.8296 71.2469 31.8836 71.4359 31.9646C71.6248 32.0186 71.8407 32.0456 72.1106 32.0456C72.3805 32.0456 72.5964 32.0186 72.7854 31.9646C72.9743 31.9106 73.1363 31.8296 73.2442 31.7217C73.3792 31.6137 73.4601 31.5057 73.5411 31.3978C73.6221 31.2898 73.6761 31.1549 73.7031 31.0469C73.73 30.9389 73.757 30.804 73.757 30.696C73.757 30.5881 73.784 30.5071 73.784 30.4261V28.7527ZM66.7125 30.4261C66.7125 30.5071 66.7125 30.5881 66.7395 30.696C66.7395 30.804 66.7665 30.912 66.8205 31.0469C66.8475 31.1549 66.9015 31.2898 66.9825 31.3978C67.0634 31.5057 67.1444 31.6137 67.2793 31.7217C67.4143 31.8296 67.5492 31.8836 67.7382 31.9646C67.9271 32.0186 68.143 32.0456 68.4129 32.0456C68.6559 32.0456 68.8448 32.0186 69.0337 31.9646C69.1957 31.9106 69.3576 31.8566 69.4656 31.7756C69.5735 31.6947 69.6815 31.6137 69.7625 31.5057C69.8434 31.3978 69.8974 31.2898 69.9514 31.1819C70.0054 31.0739 70.0324 30.9659 70.0324 30.858C70.0594 30.75 70.0594 30.669 70.0594 30.5611C70.0594 30.5071 70.0594 30.4801 70.0324 30.4261C70.0054 30.3991 69.9784 30.3721 69.9244 30.3721L69.1687 30.2102C69.1147 30.1832 69.0337 30.2102 69.0067 30.2372C68.9527 30.2642 68.9258 30.3182 68.9258 30.3991C68.9258 30.5071 68.8988 30.5881 68.8448 30.669C68.8178 30.75 68.7638 30.804 68.6828 30.831C68.6019 30.858 68.5209 30.885 68.386 30.885C68.251 30.885 68.17 30.858 68.0891 30.831C68.0081 30.804 67.9541 30.75 67.9271 30.669C67.9001 30.5881 67.8731 30.5071 67.8731 30.3991C67.8731 30.2912 67.8461 30.1832 67.8731 30.0483V29.1036V28.7527C67.8731 28.6448 67.9001 28.5638 67.9271 28.4828C67.9541 28.4018 68.0081 28.3479 68.0891 28.3209C68.17 28.2939 68.251 28.2669 68.386 28.2669C68.4939 28.2669 68.6019 28.2939 68.6828 28.3209C68.7638 28.3479 68.8178 28.4018 68.8448 28.4828C68.8718 28.5638 68.8988 28.6448 68.8988 28.7257C68.8988 28.8067 68.9258 28.8607 68.9797 28.8877C69.0337 28.9147 69.0877 28.9417 69.1687 28.9417L69.8974 28.7797C69.9514 28.7797 69.9784 28.7527 70.0054 28.7257C70.0324 28.6987 70.0324 28.6448 70.0324 28.6178C70.0324 28.5368 70.0054 28.4288 70.0054 28.3209L69.9244 27.997C69.8704 27.889 69.8164 27.7811 69.7355 27.6731C69.6545 27.5651 69.5465 27.4842 69.4386 27.4032C69.3036 27.3222 69.1687 27.2683 69.0067 27.2143C68.8448 27.1603 68.6289 27.1333 68.386 27.1333C68.1161 27.1333 67.9001 27.1603 67.7112 27.2143C67.5223 27.2683 67.3603 27.3492 67.2524 27.4572C67.1174 27.5651 67.0364 27.6731 66.9555 27.7811C66.8745 27.889 66.8205 28.024 66.7935 28.1319C66.7665 28.2399 66.7395 28.3749 66.7125 28.4828C66.7125 28.5908 66.6856 28.6718 66.6856 28.7527V30.4261H66.7125ZM66.0918 30.777C66.2267 30.777 66.2807 30.831 66.2807 30.9659V31.7217C66.2807 31.7756 66.2537 31.8296 66.2267 31.8566C66.1997 31.8836 66.1458 31.9106 66.0648 31.9106H65.309C65.2551 31.9106 65.2011 31.8836 65.1741 31.8566C65.1471 31.8296 65.1201 31.7756 65.1201 31.7217V30.9659C65.1201 30.912 65.1471 30.858 65.1741 30.804C65.2011 30.777 65.2551 30.75 65.309 30.75L66.0918 30.777Z" fill="#00B207"/>
    <path d="M16.6724 13.4227C14.1623 13.2068 1.90868 15.204 0.991001 13.0448C-0.547452 9.45508 12.327 11.4794 14.0544 11.5333C14.9181 11.5603 15.9977 11.7223 16.6184 11.5603C17.0503 11.4254 17.3472 10.7236 17.833 10.4537C18.9126 9.80596 20.667 10.1568 22.1785 10.2918C23.2041 10.3728 24.2028 10.4807 25.2824 10.5617C23.7439 10.7776 22.0975 10.9935 20.4781 11.2095C20.2891 11.2365 19.9923 11.1555 19.8573 11.3714C21.5037 11.6413 23.3661 11.6953 25.1474 11.8302C23.393 12.1001 21.4227 12.1541 19.6954 12.478C19.8033 12.6669 20.1272 12.613 20.3161 12.64C21.8546 12.7479 23.555 12.8829 25.1744 12.9638C23.501 13.2337 21.5577 13.2877 19.8843 13.6116C19.9383 13.8815 20.2891 13.8005 20.4511 13.8005C21.9895 13.9895 23.7169 14.2054 25.3094 14.3404C23.555 14.4753 21.3958 14.8802 19.5874 14.9881C18.1839 15.0691 17.3472 14.2594 16.6724 13.4227Z" fill="#00B207"/>
    <path d="M12.327 13.6387C14.2703 13.4767 15.9167 13.3418 16.6724 13.3958C17.0233 13.8276 17.3742 14.2325 17.86 14.5294C18.3188 14.8263 18.8587 15.0152 19.5604 14.9612C20.559 14.9072 21.6657 14.7453 22.7453 14.6103C23.528 14.5024 24.2837 14.3944 24.9855 14.3404C24.2837 14.2865 23.582 14.2055 22.8532 14.1245C22.0165 14.0435 21.2068 13.9356 20.4511 13.8276H20.3161C20.1272 13.8276 19.8843 13.8276 19.8573 13.6117V13.5847H19.8843C20.802 13.3958 21.8276 13.2878 22.8532 13.2068C23.555 13.1529 24.2567 13.0719 24.9045 12.9909C23.6899 12.9099 22.4214 12.829 21.2338 12.748C20.9369 12.721 20.64 12.694 20.3431 12.694H20.2082C20.0192 12.694 19.8033 12.694 19.6954 12.5321L19.6684 12.5051H19.6954C20.667 12.3162 21.7196 12.2082 22.7723 12.1272C23.474 12.0732 24.2028 11.9923 24.8775 11.9113C24.5266 11.8843 24.1488 11.8573 23.7979 11.8303C22.4484 11.7494 21.0719 11.6684 19.8573 11.4795H19.8033L19.8303 11.4525C19.9383 11.2905 20.1272 11.2905 20.2891 11.2905H20.4511L21.7466 11.1286C22.8262 10.9936 23.9328 10.8317 24.9585 10.6967C24.3377 10.6428 23.7169 10.5888 23.1231 10.5348C22.7993 10.5078 22.5024 10.4808 22.1515 10.4538L21.3418 10.3728C20.0462 10.2379 18.6967 10.076 17.833 10.6158C17.6171 10.7507 17.4282 10.9666 17.2662 11.1826C17.0503 11.4255 16.8614 11.6684 16.6184 11.7494C16.1866 11.8573 15.5388 11.8303 14.8911 11.7763C14.5942 11.7494 14.2973 11.7224 14.0274 11.7224C13.7305 11.7224 13.1097 11.6414 12.3 11.5604C9.38502 11.1016 3.90597 10.5348 1.77373 11.4525C1.01799 11.7763 0.694109 12.2622 1.01799 13.0449C1.63877 14.5294 7.79259 14.0166 12.327 13.6387ZM16.6724 13.4498C15.9167 13.3958 14.2703 13.5307 12.327 13.6927C7.79259 14.0705 1.61178 14.5834 0.964013 13.0449C0.613138 12.2352 0.964013 11.7224 1.74674 11.3715C3.90597 10.4538 9.38502 11.0206 12.327 11.3175C13.1367 11.3985 13.7575 11.4795 14.0544 11.4795C14.3243 11.4795 14.6212 11.5064 14.9181 11.5334C15.5658 11.5874 16.1866 11.6144 16.6184 11.5064C16.8344 11.4525 17.0233 11.2095 17.2392 10.9666C17.4282 10.7507 17.5901 10.5348 17.833 10.3998C18.7237 9.86003 20.0732 10.022 21.3958 10.1569L22.2055 10.2379C22.5024 10.2649 22.8532 10.2919 23.1771 10.3189C23.8789 10.3728 24.5806 10.4538 25.3094 10.4808L25.6063 10.5078L25.3364 10.5618C24.2297 10.7237 23.0422 10.8857 21.8546 11.0476L20.559 11.2096H20.3971C20.2622 11.2096 20.1002 11.2096 19.9923 11.3175C21.2068 11.5064 22.5563 11.5874 23.9059 11.6684C24.3647 11.6954 24.7965 11.7224 25.2554 11.7494L25.5253 11.7763L25.2554 11.8033C24.4997 11.9113 23.6899 11.9923 22.8802 12.0732C21.8546 12.1812 20.802 12.2622 19.8573 12.4511C19.9383 12.5591 20.1272 12.5591 20.2891 12.5591H20.4241C20.721 12.5861 21.0179 12.6131 21.3148 12.6131C22.6103 12.721 23.9598 12.802 25.2554 12.883L25.5253 12.9099L25.2554 12.9639C24.4997 13.0719 23.7169 13.1529 22.9342 13.2338C21.9356 13.3418 20.9369 13.4228 20.0192 13.6117C20.0732 13.7736 20.2622 13.7466 20.4241 13.7466H20.559C21.3418 13.8276 22.1515 13.9356 22.9612 14.0435C23.7709 14.1245 24.6076 14.2325 25.3903 14.2865V14.3404C24.6076 14.3944 23.7169 14.5294 22.8262 14.6373C21.7466 14.7723 20.64 14.9342 19.6414 14.9882C18.9396 15.0422 18.3728 14.8533 17.914 14.5564C17.3742 14.2865 16.9963 13.8816 16.6724 13.4498Z" fill="#00B207"/>
  </g>
  <defs>
    <clipPath id="clip0_629_3413">
      <rect width="82.6446" height="32" fill="white" transform="translate(0.882996)"/>
    </clipPath>
  </defs>
</svg>