<svg xmlns="http://www.w3.org/2000/svg" width="61" height="32" viewBox="0 0 61 32" fill="none">
  <path fill-rule="evenodd" clip-rule="evenodd" d="M26.1012 27.7551C23.5171 29.8774 20.1026 31.1692 16.5034 31.1692C8.01319 31.1692 1.2072 24.3399 1.2072 15.9653C1.2072 7.56744 8.01319 0.738103 16.5034 0.738103C22.1329 0.738103 27.0243 3.78355 29.7004 8.39789C30.0694 8.49024 30.3465 8.58259 30.7152 8.67494C28.0394 3.50685 22.6867 0 16.5034 0C7.64379 0 0.46875 7.10604 0.46875 15.9653C0.46875 24.802 7.64414 32 16.5034 32C20.6564 32 24.4399 30.3391 27.301 27.7551H26.1012Z" fill="#00B207"/>
  <path fill-rule="evenodd" clip-rule="evenodd" d="M18.5337 27.0173H60.4081V20.7417H18.5337V27.0173Z" fill="#00B207"/>
  <path fill-rule="evenodd" clip-rule="evenodd" d="M20.6561 9.50508L20.4714 10.3359H18.4411C17.8873 16.2424 17.5183 21.0178 17.1492 23.2331C16.3188 27.2013 12.6272 29.416 10.2279 29.416C9.39741 29.416 8.38226 29.0473 8.38226 28.0321C8.38226 27.4784 8.84366 27.017 9.39741 27.017C10.2279 27.017 10.874 27.6627 11.3354 28.4009C12.6276 27.6627 12.8119 27.017 13.3657 24.4326C13.6427 23.2331 14.3808 14.6732 14.7499 10.3359H13.0886L13.2733 9.50508H14.9346L15.1193 8.02888C16.0421 2.58408 20.0103 1.93799 21.4872 1.93799C22.2253 1.93799 23.7018 2.30704 23.7018 3.32219C23.7018 3.96794 23.1481 4.24499 22.5943 4.24499C21.5792 4.24499 21.1178 3.69124 20.6561 2.86044C18.9948 3.59889 18.7181 7.65948 18.5334 9.50474H20.6561V9.50508ZM20.4717 17.0725C20.4717 12.7356 23.2404 8.95168 27.9468 8.95168C30.9002 8.95168 32.5608 10.2439 32.5608 13.1046C32.5608 17.4419 29.7924 21.1105 25.0857 21.1105C22.1329 21.1105 20.4717 19.8183 20.4717 17.0725ZM28.7776 13.7507C28.7776 12.6432 28.6852 9.96717 27.0243 9.96717C24.625 9.96717 24.2556 14.6735 24.2556 16.4271C24.2556 17.4423 24.3479 20.188 26.0088 20.188C28.4082 20.1877 28.7776 15.504 28.7776 13.7507ZM33.5763 17.0725C33.5763 12.7356 36.4374 8.95168 41.1437 8.95168C44.0048 8.95168 45.7347 10.2439 45.7347 13.1046C45.7347 17.4419 42.897 21.1105 38.1906 21.1105C35.3295 21.1105 33.5763 19.8183 33.5763 17.0725ZM41.9742 13.7507C41.9742 12.6432 41.8822 9.96717 40.2209 9.96717C37.7292 9.96717 37.4525 14.6735 37.4525 16.4271C37.4525 17.4423 37.4525 20.188 39.1134 20.188C41.6048 20.1877 41.9742 15.504 41.9742 13.7507ZM60.0395 19.7263C58.3779 20.4644 56.3476 21.1101 54.9637 21.1101C54.2256 21.1101 54.3173 20.0023 54.3173 19.5412C54.3173 18.9882 54.3173 18.249 54.5023 16.7962L54.4097 16.7035C53.4869 18.6184 51.6413 21.1101 49.2419 21.1101C47.396 21.1101 46.5652 19.1722 46.5652 17.5343C46.5652 13.4733 49.795 9.13638 54.4097 9.13638H55.3325C55.7018 6.27529 55.7018 5.07578 55.7018 4.15264C55.7018 3.87594 55.7018 3.59889 55.4248 3.59889C55.1478 3.59889 54.779 3.69124 53.8559 3.96794L53.6715 3.22984C55.5175 2.58409 57.5478 2.21469 59.393 2.12234C59.5781 2.12234 59.6701 2.12234 59.6701 2.49139C59.6701 4.89074 57.8242 17.4416 57.8242 18.7111C57.8242 18.9882 57.8242 19.4492 58.1935 19.4492C58.3779 19.4492 59.0243 19.2642 59.7624 18.9878L60.0395 19.7263ZM54.0403 15.781C54.6867 14.2121 54.8711 12.6432 55.2404 10.2439C55.0554 10.1512 54.8711 10.1512 54.779 10.1512C51.918 10.1512 50.5334 14.3965 50.5334 16.7035C50.5334 17.2572 50.6261 18.6184 51.4566 18.6184C52.6564 18.6188 53.6715 16.7038 54.0403 15.781Z" fill="#00B207"/>
  <path fill-rule="evenodd" clip-rule="evenodd" d="M21.0255 22.2178H22.0406L23.3325 24.1558V22.2178H24.1632V25.909H23.4248L21.8559 23.7871V25.909H21.0255V22.2178V22.2178ZM26.5622 22.2178H29.4233V22.9563H27.6697V23.6017H28.7776V24.4325H27.6697V25.0782H29.4233V25.909H26.5622V22.2178ZM32.4691 22.9563H31.454V22.2178H34.5914V22.9563H33.5763V25.909H32.4691V22.9563V22.9563ZM36.4374 22.2178H37.5442L38.0063 24.1558H38.0979L38.5593 22.2178H39.4828L39.9439 24.1558H40.0366L40.498 22.2178H41.3281L40.4053 25.909H39.4828L38.9287 23.8787L38.375 25.909H37.4525L36.4374 22.2178V22.2178ZM45.089 26.0017C44.0048 26.0017 43.2664 25.2636 43.2664 24.0634C43.2664 22.8639 44.0045 22.1255 45.089 22.1255C46.1968 22.1255 46.8422 22.8636 46.8422 24.0634C46.8422 25.2633 46.1965 26.0017 45.089 26.0017ZM44.4432 24.0631C44.4432 25.0782 44.7203 25.2633 45.089 25.2633C45.4584 25.2633 45.7347 25.0782 45.7347 24.0631C45.7347 23.0486 45.4584 22.8636 45.089 22.8636C44.6276 22.8636 44.4432 23.1406 44.4432 24.0631ZM49.0569 22.2178H50.9028C52.1023 22.2178 52.3794 22.7709 52.3794 23.233C52.3794 23.6944 52.1023 24.0631 51.6413 24.1558L52.3794 25.909H51.1799L50.6261 24.3401H50.1647V25.909H49.0569V22.2178ZM50.1647 23.6944H50.7185C50.9948 23.6944 51.2722 23.5093 51.2722 23.325C51.2722 23.0486 51.0872 22.8636 50.7185 22.8636H50.1647V23.6944V23.6944ZM54.6867 22.2178H55.7942V23.6944L56.9014 22.2178H57.9165L56.9937 23.4173L58.1009 25.909H56.9937L56.2556 24.3401L55.7942 24.9866V25.909H54.6867V22.2178Z" fill="white"/>
</svg>